# xmcd
#
# Track frame offsets: 
#        150
#        19070
#        34665
#        52550
#        69540
#        85995
#        102205
#        114867
#        130602
#        154510
#        171705
#        188917
#        202635
#        219915
#
# Disc length: 3162 seconds
#
# Revision: 0
# Processed by: cddbd v1.5.2PL0 Copyright (c) Steve Scherf et al.
# Submitted via: ExactAudioCopy v1.3
#
DISCID=a80c580e
DTITLE=Roby e Roger - Acústico ao vivo
DYEAR=1900
DGENRE=Country
TTITLE0=Mesmo De Brincadeira
TTITLE1=Tem Nada a Ver
TTITLE2=Fim de Semana
TTITLE3=Pedindo pra voltar
TTITLE4=Magia
TTITLE5=Tudo é Possível
TTITLE6=Senhorita
TTITLE7=Roda De Amigos
TTITLE8=Noite de tortura - apaixonei de novo - cama fria
TTITLE9=Pedaço De Pano
TTITLE10=Meu segredo
TTITLE11=Acelera
TTITLE12=Volta Pro Seu Ninho (Voa)
TTITLE13=Palavras Ao Vento
EXTD=
EXTT0=
EXTT1=
EXTT2=
EXTT3=
EXTT4=
EXTT5=
EXTT6=
EXTT7=
EXTT8=
EXTT9=
EXTT10=
EXTT11=
EXTT12=
EXTT13=
PLAYORDER=
